<?xml version="1.0" encoding="utf-8"?>
<!-- Generator: Adobe Illustrator 24.2.0, SVG Export Plug-In . SVG Version: 6.00 Build 0)  -->
<svg version="1.1" id="Ebene_1" xmlns="http://www.w3.org/2000/svg" xmlns:xlink="http://www.w3.org/1999/xlink" x="0px" y="0px"
	 viewBox="0 0 58 47" style="enable-background:new 0 0 58 47;" xml:space="preserve">
<style type="text/css">
	.st0{fill:#333333;}
</style>
<path class="st0" d="M57.4,22.1L35.9,0.6c-0.8-0.8-2-0.8-2.8,0c-0.8,0.8-0.8,2,0,2.8l18.1,18.1H2c-1.1,0-2,0.9-2,2c0,1.1,0.9,2,2,2
	h49.2L33.1,43.6c-0.8,0.8-0.8,2,0,2.8c0.4,0.4,0.9,0.6,1.4,0.6s1-0.2,1.4-0.6l21.5-21.5c0.4-0.4,0.6-0.9,0.6-1.4
	S57.8,22.5,57.4,22.1z"/>
</svg>
