<?xml version="1.0" encoding="utf-8"?>
<!-- Generator: Adobe Illustrator 24.2.0, SVG Export Plug-In . SVG Version: 6.00 Build 0)  -->
<svg version="1.1" id="Ebene_1" xmlns="http://www.w3.org/2000/svg" xmlns:xlink="http://www.w3.org/1999/xlink" x="0px" y="0px"
	 viewBox="0 0 59 59" style="enable-background:new 0 0 59 59;" xml:space="preserve">
<style type="text/css">
	.st0{fill:none;}
	.st1{fill:none;stroke:#FFFFFF;stroke-width:2;}
	.st2{fill:#FFFFFF;}
</style>
<g id="Ellipse_15">
	<circle class="st0" cx="29.5" cy="29.5" r="29.5"/>
	<circle class="st1" cx="29.5" cy="29.5" r="28.5"/>
</g>
<path id="Pfad_18" class="st2" d="M23.4,28.6l0.5-0.5l1.8-1.9l4.6-4.8c0.5-0.5,1.3-0.5,1.8,0c0,0,0,0,0,0l0.5,0.5
	c0.5,0.5,0.5,1.3,0,1.9l-1.5,1.5L28,28.6l-0.9,0.9l0.9,0.9l4.6,4.8c0.5,0.5,0.5,1.3,0,1.9l-0.5,0.5c-0.5,0.5-1.3,0.5-1.8,0
	c0,0,0,0,0,0l-4.6-4.8L23.9,31l-0.5-0.5C22.9,29.9,22.9,29.1,23.4,28.6z"/>
</svg>
