<?xml version="1.0" encoding="utf-8"?>
<!-- Generator: Adobe Illustrator 24.2.0, SVG Export Plug-In . SVG Version: 6.00 Build 0)  -->
<svg version="1.1" id="Ebene_1" xmlns="http://www.w3.org/2000/svg" xmlns:xlink="http://www.w3.org/1999/xlink" x="0px" y="0px"
	 viewBox="0 0 25 22" style="enable-background:new 0 0 25 22;" xml:space="preserve">
<style type="text/css">
	.st0{fill:#003968;}
</style>
<path id="checkmark" class="st0" d="M24.8,3l-3.3-2.9C21.4,0,21.3,0,21.1,0c-0.1,0-0.3,0.1-0.4,0.2l-12,13.6L4.5,8.1
	C4.3,7.9,4,7.9,3.7,8l-3.5,2.6c-0.2,0.2-0.3,0.5-0.1,0.7c0,0,0,0,0,0L8,21.8C8.1,21.9,8.3,22,8.4,22h0c0.1,0,0.3-0.1,0.4-0.2
	l16-18.1C25.1,3.5,25,3.2,24.8,3C24.8,3,24.8,3,24.8,3"/>
</svg>
