<?xml version="1.0" encoding="utf-8"?>
<!-- Generator: Adobe Illustrator 24.2.0, SVG Export Plug-In . SVG Version: 6.00 Build 0)  -->
<svg version="1.1" id="Ebene_1" xmlns="http://www.w3.org/2000/svg" xmlns:xlink="http://www.w3.org/1999/xlink" x="0px" y="0px"
	 viewBox="0 0 38 38" style="enable-background:new 0 0 38 38;" xml:space="preserve">
<style type="text/css">
	.st0{fill:#FFFFFF;}
</style>
<path class="st0" d="M37.1,32.8L23.3,19L37.1,5.2c1.2-1.2,1.2-3.1,0-4.3c-1.2-1.2-3.1-1.2-4.3,0L19,14.7L5.2,0.9
	C4-0.3,2.1-0.3,0.9,0.9s-1.2,3.1,0,4.3L14.7,19L0.9,32.8c-1.2,1.2-1.2,3.1,0,4.3c1.2,1.2,3.1,1.2,4.3,0L19,23.3l13.8,13.8
	c1.2,1.2,3.1,1.2,4.3,0C38.3,35.9,38.3,34,37.1,32.8z"/>
</svg>
