<?xml version="1.0" encoding="utf-8"?>
<!-- Generator: Adobe Illustrator 24.2.0, SVG Export Plug-In . SVG Version: 6.00 Build 0)  -->
<svg version="1.1" id="Ebene_1" xmlns="http://www.w3.org/2000/svg" xmlns:xlink="http://www.w3.org/1999/xlink" x="0px" y="0px"
	 viewBox="0 0 32 32" style="enable-background:new 0 0 32 32;" xml:space="preserve">
<style type="text/css">
	.st0{fill:none;}
	.st1{fill:#333333;}
</style>
<g id="Rechteck_87">
	<rect x="0" class="st0" width="32" height="32"/>
	<path class="st1" d="M32,32H0V0h32V32z M2,30h28V2H2V30z"/>
</g>
<path id="Pfad_52" class="st1" d="M17,21.2l0.6-0.6l2-2l5.1-5.1c0.5-0.5,0.5-1.3,0.1-1.9c0,0-0.1-0.1-0.1-0.1L24,11
	c-0.6-0.5-1.4-0.5-2,0l-1.6,1.6L17,16.1l-1,1l-1-1L10,11c-0.6-0.5-1.4-0.5-2,0l-0.6,0.6c-0.5,0.5-0.5,1.3-0.1,1.9
	c0,0,0.1,0.1,0.1,0.1l5.1,5.1l2,2l0.6,0.6C15.6,21.7,16.4,21.7,17,21.2z"/>
</svg>
