<?xml version="1.0" encoding="utf-8"?>
<!-- Generator: Adobe Illustrator 24.2.0, SVG Export Plug-In . SVG Version: 6.00 Build 0)  -->
<svg version="1.1" id="Ebene_1" xmlns="http://www.w3.org/2000/svg" xmlns:xlink="http://www.w3.org/1999/xlink" x="0px" y="0px"
	 viewBox="0 0 17 10" style="enable-background:new 0 0 17 10;" xml:space="preserve">
<style type="text/css">
	.st0{fill:#333333;}
</style>
<path id="Pfad_52" class="st0" d="M7.6,9.6L7,9.1L5.2,7.3L0.4,2.7c-0.5-0.5-0.5-1.3,0-1.8c0,0,0,0,0,0l0.5-0.5
	c0.5-0.5,1.3-0.5,1.9,0l1.5,1.5L7.6,5l0.9,0.9L9.4,5l4.8-4.6c0.5-0.5,1.3-0.5,1.9,0l0.5,0.5c0.5,0.5,0.5,1.3,0,1.8c0,0,0,0,0,0
	l-4.8,4.6L10,9.1L9.4,9.6C8.9,10.1,8.1,10.1,7.6,9.6z"/>
</svg>
