<?xml version="1.0" encoding="utf-8"?>
<!-- Generator: Adobe Illustrator 24.2.0, SVG Export Plug-In . SVG Version: 6.00 Build 0)  -->
<svg version="1.1" id="Ebene_1" xmlns="http://www.w3.org/2000/svg" xmlns:xlink="http://www.w3.org/1999/xlink" x="0px" y="0px"
	 viewBox="0 0 28 28" style="enable-background:new 0 0 28 28;" xml:space="preserve">
<style type="text/css">
	.st0{fill:#333333;}
</style>
<g>
	<polygon class="st0" points="0,0 0,4 0,11 4,11 4,4 11,4 11,0 4,0 	"/>
	<polygon class="st0" points="4,17 0,17 0,24 0,28 4,28 11,28 11,24 4,24 	"/>
	<polygon class="st0" points="24,0 17,0 17,4 24,4 24,11 28,11 28,4 28,0 	"/>
	<polygon class="st0" points="24,24 17,24 17,28 24,28 28,28 28,24 28,17 24,17 	"/>
</g>
</svg>
