<?xml version="1.0" encoding="utf-8"?>
<!-- Generator: Adobe Illustrator 24.2.0, SVG Export Plug-In . SVG Version: 6.00 Build 0)  -->
<svg version="1.1" id="Ebene_1" xmlns="http://www.w3.org/2000/svg" xmlns:xlink="http://www.w3.org/1999/xlink" x="0px" y="0px"
	 viewBox="0 0 18 36" style="enable-background:new 0 0 18 36;" xml:space="preserve">
<style type="text/css">
	.st0{fill-rule:evenodd;clip-rule:evenodd;fill:#FFFFFF;}
</style>
<path id="facebook-2" class="st0" d="M4.5,19.1v16.4C4.5,35.8,4.7,36,5,36h6.2c0.2,0,0.4-0.2,0.4-0.5V18.9h5.5
	c0.2,0,0.4-0.2,0.4-0.4l0.4-5.3c0-0.2-0.2-0.5-0.4-0.5c0,0,0,0,0,0h-5.9V7.8c0-0.9,0.7-1.6,1.5-1.6h4.5C17.8,6.2,18,6,18,5.8v0V0.5
	C18,0.2,17.8,0,17.6,0h-6.8C7.2,0.1,4.4,3,4.5,6.5v6.1H0.4c-0.2,0-0.4,0.2-0.4,0.5c0,0,0,0,0,0v5.3c0,0.2,0.2,0.4,0.4,0.5h4.1
	L4.5,19.1z"/>
</svg>
