<svg xmlns="http://www.w3.org/2000/svg" width="35" height="30.001" viewBox="0 0 35 30.001">
  <path id="favorit" d="M17.5,30H17.5a3.222,3.222,0,0,1-2.055-.74c-1.054-.879-2.08-1.713-3.018-2.478l-.638-.517a68.873,68.873,0,0,1-8.217-7.348A12.415,12.415,0,0,1,0,10.571,10.591,10.591,0,0,1,2.914,3.086,10.274,10.274,0,0,1,10.341,0a9.666,9.666,0,0,1,5.851,1.931A11.355,11.355,0,0,1,17.5,3.068a11.447,11.447,0,0,1,1.307-1.139A9.766,9.766,0,0,1,24.678,0h.1a10.238,10.238,0,0,1,7.3,3.074A10.6,10.6,0,0,1,35,10.555a12.449,12.449,0,0,1-3.575,8.378,68.725,68.725,0,0,1-8.208,7.333c-1.11.9-2.362,1.918-3.66,3A3.233,3.233,0,0,1,17.5,30M17.5,27.54H17.5a.7.7,0,0,0,.445-.16c1.306-1.083,2.564-2.1,3.678-3.009a66.817,66.817,0,0,0,7.992-7.134A10.014,10.014,0,0,0,32.5,10.5a8.154,8.154,0,0,0-2.245-5.739,7.717,7.717,0,0,0-5.5-2.3h-.12a7.229,7.229,0,0,0-4.321,1.428,8.967,8.967,0,0,0-1.812,1.806l-1,1.336L16.5,5.7a8.963,8.963,0,0,0-1.813-1.8A7.214,7.214,0,0,0,10.38,2.459h-.121A7.731,7.731,0,0,0,4.728,4.774,8.141,8.141,0,0,0,2.5,10.516a9.988,9.988,0,0,0,2.876,6.7,66.716,66.716,0,0,0,7.6,6.84H13l1.018.825c.945.77,1.976,1.61,3.038,2.495a.7.7,0,0,0,.443.159Z" transform="translate(-0.001 0.001)" fill="#0058a1"/>
</svg>
