<?xml version="1.0" encoding="utf-8"?>
<!-- Generator: Adobe Illustrator 24.2.0, SVG Export Plug-In . SVG Version: 6.00 Build 0)  -->
<svg version="1.1" id="Ebene_1" xmlns="http://www.w3.org/2000/svg" xmlns:xlink="http://www.w3.org/1999/xlink" x="0px" y="0px"
	 viewBox="0 0 59 59" style="enable-background:new 0 0 59 59;" xml:space="preserve">
<style type="text/css">
	.st0{fill:none;}
	.st1{fill:none;stroke:#FFFFFF;stroke-width:2;}
	.st2{fill:#FFFFFF;}
</style>
<g id="Ellipse_15">
	<circle class="st0" cx="29.5" cy="29.5" r="29.5"/>
	<circle class="st1" cx="29.5" cy="29.5" r="28.5"/>
</g>
<path id="Pfad_18" class="st2" d="M35.6,30.4L35.1,31l-1.8,1.9l-4.6,4.8c0,0,0,0,0,0c-0.5,0.5-1.3,0.5-1.8,0l-0.5-0.5
	c-0.5-0.5-0.5-1.3,0-1.9l4.6-4.8l0.9-0.9L31,28.6l-3.2-3.3l-1.5-1.5c-0.5-0.5-0.5-1.3,0-1.9l0.5-0.5c0,0,0,0,0,0
	c0.5-0.5,1.3-0.5,1.8,0l4.6,4.8l1.8,1.9l0.5,0.5C36.1,29.1,36.1,29.9,35.6,30.4z"/>
</svg>
