<svg xmlns="http://www.w3.org/2000/svg" width="22.026" height="22.026" viewBox="0 0 22.026 22.026"><defs><style>.a{fill:#fcf8f8;}</style></defs><g transform="translate(-4.079 -4.079)"><path class="a" d="M15.092,6.063c2.941,0,3.289.011,4.45.064a6.094,6.094,0,0,1,2.045.379,3.647,3.647,0,0,1,2.09,2.09,6.093,6.093,0,0,1,.379,2.045c.053,1.161.064,1.51.064,4.45s-.011,3.289-.064,4.45a6.1,6.1,0,0,1-.379,2.045,3.647,3.647,0,0,1-2.09,2.09,6.093,6.093,0,0,1-2.045.379c-1.161.053-1.509.064-4.45.064s-3.289-.011-4.45-.064A6.1,6.1,0,0,1,8.6,23.678a3.647,3.647,0,0,1-2.09-2.09,6.093,6.093,0,0,1-.379-2.045c-.053-1.161-.064-1.51-.064-4.45s.011-3.289.064-4.45A6.094,6.094,0,0,1,6.507,8.6,3.648,3.648,0,0,1,8.6,6.507a6.093,6.093,0,0,1,2.045-.379c1.161-.053,1.51-.064,4.45-.064m0-1.984c-2.991,0-3.366.013-4.541.066a8.083,8.083,0,0,0-2.673.512A5.633,5.633,0,0,0,4.657,7.878a8.085,8.085,0,0,0-.511,2.673c-.054,1.174-.066,1.55-.066,4.541s.013,3.366.066,4.541a8.083,8.083,0,0,0,.512,2.673,5.632,5.632,0,0,0,3.221,3.221,8.084,8.084,0,0,0,2.673.512c1.175.054,1.55.066,4.541.066s3.366-.013,4.541-.066a8.083,8.083,0,0,0,2.673-.512,5.631,5.631,0,0,0,3.221-3.221,8.084,8.084,0,0,0,.512-2.673c.054-1.175.066-1.55.066-4.541s-.013-3.366-.066-4.541a8.083,8.083,0,0,0-.512-2.673,5.633,5.633,0,0,0-3.221-3.221,8.085,8.085,0,0,0-2.673-.511c-1.174-.054-1.55-.066-4.541-.066h0Z"/><path class="a" d="M132.29,126.635a5.655,5.655,0,1,0,5.655,5.655A5.655,5.655,0,0,0,132.29,126.635Zm0,9.326a3.671,3.671,0,1,1,3.671-3.671A3.671,3.671,0,0,1,132.29,135.961Z" transform="translate(-117.198 -117.198)"/><circle class="a" cx="1.322" cy="1.322" r="1.322" transform="translate(19.649 7.892)"/></g></svg>