<?xml version="1.0" encoding="utf-8"?>
<!-- Generator: Adobe Illustrator 24.2.0, SVG Export Plug-In . SVG Version: 6.00 Build 0)  -->
<svg version="1.1" id="Ebene_1" xmlns="http://www.w3.org/2000/svg" xmlns:xlink="http://www.w3.org/1999/xlink" x="0px" y="0px"
	 viewBox="0 0 19 26" style="enable-background:new 0 0 19 26;" xml:space="preserve">
<style type="text/css">
	.st0{fill:#FFFFFF;}
</style>
<path id="Pfad_46" class="st0" d="M9.5,0C4.3,0,0,4.2,0,9.4c0,6.4,8.5,15.9,8.9,16.3c0.3,0.4,0.9,0.4,1.2,0.1c0,0,0,0,0.1-0.1
	c0.4-0.4,8.9-9.9,8.9-16.3C19,4.2,14.7,0,9.5,0z M9.5,14.2c-2.6,0-4.7-2.2-4.7-4.8c0-2.6,2.2-4.7,4.8-4.7c2.6,0,4.7,2.1,4.7,4.7
	C14.3,12,12.1,14.2,9.5,14.2z"/>
</svg>
