<?xml version="1.0" encoding="utf-8"?>
<!-- Generator: Adobe Illustrator 24.2.0, SVG Export Plug-In . SVG Version: 6.00 Build 0)  -->
<svg version="1.1" id="Ebene_1" xmlns="http://www.w3.org/2000/svg" xmlns:xlink="http://www.w3.org/1999/xlink" x="0px" y="0px"
	 viewBox="0 0 33 33" style="enable-background:new 0 0 33 33;" xml:space="preserve">
<style type="text/css">
	.st0{fill:#FFFFFF;}
</style>
<path id="Pfad_32" class="st0" d="M33,33L33,33l0-12.1c0-5.9-1.3-10.5-8.2-10.5c-2.6-0.1-5.1,1.3-6.5,3.6h-0.1v-3h-6.5v22h6.8V22.1
	c0-2.9,0.5-5.6,4.1-5.6c3.5,0,3.6,3.3,3.6,5.8V33L33,33z"/>
<path id="Pfad_33" class="st0" d="M0.6,11h6.8v22H0.6V11z"/>
<path id="Pfad_34" class="st0" d="M4,0C1.8,0,0,1.8,0,4s1.8,4,4,4c2.2,0,4-1.8,4-4c0,0,0,0,0,0C8,1.8,6.2,0,4,0z"/>
</svg>
