<?xml version="1.0" encoding="utf-8"?>
<!-- Generator: Adobe Illustrator 24.2.0, SVG Export Plug-In . SVG Version: 6.00 Build 0)  -->
<svg version="1.1" id="Ebene_1" xmlns="http://www.w3.org/2000/svg" xmlns:xlink="http://www.w3.org/1999/xlink" x="0px" y="0px"
	 viewBox="0 0 100 180" style="enable-background:new 0 0 100 180;" xml:space="preserve">
<style type="text/css">
	.st0{fill:#003968;}
	.st1{fill:#587D9D;}
	.st2{fill:#CCD8DE;}
</style>
<g id="logo" transform="translate(0 -3)">
	<rect id="hg" y="3" class="st0" width="100" height="180"/>
	<path id="A" class="st1" d="M43.4,84.1l-16.6,57.4h39.3l3.5,13.1H23.1L14.8,183H0l29.3-99L43.4,84.1z"/>
	<g id="schriftzug" transform="translate(35.785 10.62)">
		<path id="Pfad_2" class="st2" d="M0,124.1l0.3-1h6.5l0,0l-5.5-3.5l0.3-0.9l6.7,4.4L8,123.9L0,124.1z"/>
		<path id="Pfad_3" class="st2" d="M2.4,115.5l0.3-0.9l7.4,2.1l-0.3,0.9L2.4,115.5z"/>
		<path id="Pfad_4" class="st2" d="M3.8,110.8l0.3-1.2l6.9-1.1l0,0l-6.1-1.7l0.3-0.9l7.4,2.1l-0.3,1.2l-6.9,1.1l0,0l6.1,1.7
			l-0.3,0.9L3.8,110.8z"/>
		<path id="Pfad_5" class="st2" d="M7.3,101.3L6.8,103L6,102.8l1.2-4.3l0.8,0.2l-0.5,1.7l6.6,1.9l-0.3,0.9L7.3,101.3z"/>
		<path id="Pfad_6" class="st2" d="M8.8,93.1l8.1-0.3l-0.3,1l-2.1,0l-0.8,2.8l1.8,1.1l-0.3,0.9l-6.7-4.6L8.8,93.1z M13.6,93.8
			l-4,0.1l0,0l3.4,2.2L13.6,93.8z"/>
		<path id="Pfad_7" class="st2" d="M18.8,85c0.1,0.7,0,1.3-0.1,1.9c-0.7,2.3-2.7,2.8-4.7,2.3c-2.3-0.7-3.4-2.4-2.8-4.3
			c0.1-0.6,0.4-1.2,0.8-1.6l0.9,0.3c-0.4,0.5-0.8,1-0.9,1.6c-0.3,1.2,0.3,2.6,2.1,3.1c1.9,0.5,3.4,0.1,3.8-1.5
			c0.1-0.3,0.1-0.7,0.1-1L15.6,85l-0.4,1.2L14.4,86l0.6-2.1L18.8,85z"/>
		<path id="Pfad_8" class="st2" d="M12.7,79.2l1-3.4l0.8,0.2l-0.7,2.5l2.4,0.7l0.7-2.4l0.8,0.2L17,79.4l2.6,0.7l0.8-2.7l0.8,0.2
			l-1,3.6L12.7,79.2z"/>
		<path id="Pfad_9" class="st2" d="M16.1,67.5l0.5-1.8c0.1-0.6,0.5-1.1,1-1.4c0.5-0.3,1.1-0.3,1.7-0.2c1.4,0.4,2,1.5,1.5,3l-0.2,0.6
			l3.1,0.9l-0.3,0.9L16.1,67.5z M19.9,67.5L20,67c0.3-1.1-0.1-1.7-0.9-1.9c-1-0.3-1.6,0.2-1.9,1.1l-0.2,0.5L19.9,67.5z"/>
		<path id="Pfad_10" class="st2" d="M18.8,57.7c0.5-1.6,2.2-2.3,4.5-1.6c2.6,0.7,3.6,2.1,3.1,3.9c-0.5,1.6-2.2,2.3-4.5,1.6
			C19.3,60.9,18.3,59.5,18.8,57.7z M25.5,59.8c0.3-1-0.3-2-2.6-2.7c-1.5-0.4-3.1-0.4-3.4,0.9c-0.3,1,0.3,2,2.6,2.7
			C23.6,61.1,25.2,61,25.5,59.8L25.5,59.8z"/>
		<path id="Pfad_11" class="st2" d="M22.5,48.9c-0.3,0.3-0.6,0.7-0.7,1.2c-0.2,0.6,0.1,1.2,0.7,1.4c0,0,0.1,0,0.1,0
			c0.5,0.1,0.8,0,1.7-0.9c0.6-0.8,1.6-1.2,2.6-0.9c1.1,0.2,1.8,1.3,1.6,2.5c0,0.1-0.1,0.2-0.1,0.3c-0.1,0.5-0.4,1-0.8,1.5l-1-0.3
			c0.4-0.3,0.7-0.8,0.9-1.3c0.2-0.6-0.1-1.4-0.7-1.6c0,0-0.1,0-0.1,0c-0.6-0.2-0.9-0.1-1.8,0.7c-1.2,1.1-1.7,1.3-2.7,1
			c-1-0.3-1.6-1.3-1.3-2.4c0-0.1,0-0.1,0.1-0.2c0.1-0.5,0.3-0.9,0.6-1.3L22.5,48.9z"/>
		<path id="Pfad_12" class="st2" d="M23.6,43.9l-0.5,1.7l-0.8-0.2l1.2-4.3l0.8,0.2L23.9,43l6.6,1.9l-0.3,0.9L23.6,43.9z"/>
		<path id="Pfad_13" class="st2" d="M24.5,37.9l1-3.4l0.8,0.2l-0.7,2.5l2.4,0.7l0.7-2.4l0.8,0.2l-0.7,2.4l2.6,0.7l0.8-2.7l0.8,0.2
			l-1,3.6L24.5,37.9z"/>
		<path id="Pfad_14" class="st2" d="M26.5,30.9L27,29c0.1-0.6,0.5-1.1,1-1.4c0.5-0.3,1-0.3,1.6-0.2c0.9,0.2,1.5,1.1,1.4,2l0,0
			c0.2-0.4,0.5-0.6,0.9-0.6l3.3-0.2l-0.3,1l-2.7,0.1c-0.6-0.1-1.1,0.4-1.2,0.9l-0.1,0.4l3.4,1L33.9,33L26.5,30.9z M30,30.9l0.2-0.7
			c0.3-0.7-0.1-1.4-0.7-1.7c-0.1,0-0.1,0-0.2-0.1c-0.6-0.2-1.3,0.1-1.5,0.8c0,0.1,0,0.2-0.1,0.3l-0.2,0.7L30,30.9z"/>
		<path id="Pfad_15" class="st2" d="M30.6,16.4l8.1-0.3l-0.3,1l-2.1,0l-0.8,2.8l1.8,1.1L37,22l-6.7-4.6L30.6,16.4z M35.4,17.1
			l-4,0.1l0,0l3.4,2.2L35.4,17.1z"/>
		<path id="Pfad_16" class="st2" d="M32.1,10.9L32.7,9c0.1-0.6,0.5-1.1,1-1.4c0.5-0.3,1-0.3,1.6-0.1c0.9,0.2,1.5,1.1,1.4,2l0,0
			c0.2-0.4,0.5-0.6,0.9-0.6l3.3-0.2l-0.3,1l-2.7,0.1c-0.6-0.1-1.1,0.4-1.2,0.9l-0.1,0.4l3.4,1l-0.3,0.9L32.1,10.9z M35.7,10.9
			l0.2-0.7c0.3-0.7-0.1-1.4-0.7-1.7c-0.1,0-0.1,0-0.2-0.1c-0.6-0.2-1.3,0.1-1.5,0.8c0,0.1,0,0.2-0.1,0.2l-0.2,0.7L35.7,10.9z"/>
		<path id="Pfad_17" class="st2" d="M35.3,2.9l-0.5,1.7L34,4.3L35.2,0L36,0.2l-0.5,1.7l6.6,1.9l-0.3,0.9L35.3,2.9z"/>
	</g>
</g>
</svg>
