<?xml version="1.0" encoding="utf-8"?>
<!-- Generator: Adobe Illustrator 24.2.0, SVG Export Plug-In . SVG Version: 6.00 Build 0)  -->
<svg version="1.1" id="Ebene_1" xmlns="http://www.w3.org/2000/svg" xmlns:xlink="http://www.w3.org/1999/xlink" x="0px" y="0px"
	 viewBox="0 0 23 17" style="enable-background:new 0 0 23 17;" xml:space="preserve">
<style type="text/css">
	.st0{fill:#333333;}
</style>
<path id="Pfad_41" class="st0" d="M23,14.2c0,0.5-0.1,1-0.4,1.4l-7.3-8l7.2-6.2c0.3,0.4,0.4,1,0.4,1.5L23,14.2z M11.5,9l10-8.6
	C21.1,0.1,20.6,0,20.1,0H2.9C2.4,0,1.9,0.1,1.5,0.4L11.5,9z M14.3,8.5l-2.3,2c-0.3,0.2-0.7,0.2-0.9,0l-2.3-2l-7.4,8.1
	c0.5,0.3,1,0.4,1.5,0.4h17.2c0.5,0,1.1-0.2,1.5-0.4L14.3,8.5z M0.4,1.3C0.2,1.8,0,2.3,0,2.8v11.3c0,0.5,0.1,1,0.4,1.4l7.3-8L0.4,1.3
	z"/>
</svg>
