<?xml version="1.0" encoding="utf-8"?>
<!-- Generator: Adobe Illustrator 24.2.0, SVG Export Plug-In . SVG Version: 6.00 Build 0)  -->
<svg version="1.1" id="Ebene_1" xmlns="http://www.w3.org/2000/svg" xmlns:xlink="http://www.w3.org/1999/xlink" x="0px" y="0px"
	 viewBox="0 0 50 30" style="enable-background:new 0 0 50 30;" xml:space="preserve">
<style type="text/css">
	.st0{fill:#9E9E9E;}
</style>
<path id="Rechteck_30" class="st0" d="M3,0h44c1.7,0,3,1.3,3,3l0,0c0,1.7-1.3,3-3,3H3C1.3,6,0,4.7,0,3l0,0C0,1.3,1.3,0,3,0z"/>
<path id="Rechteck_31" class="st0" d="M3,12h44c1.7,0,3,1.3,3,3l0,0c0,1.7-1.3,3-3,3H3c-1.7,0-3-1.3-3-3l0,0C0,13.3,1.3,12,3,12z"/>
<path id="Rechteck_32" class="st0" d="M3,24h44c1.7,0,3,1.3,3,3l0,0c0,1.7-1.3,3-3,3H3c-1.7,0-3-1.3-3-3l0,0C0,25.3,1.3,24,3,24z"/>
</svg>
