<?xml version="1.0" encoding="utf-8"?>
<!-- Generator: Adobe Illustrator 24.2.0, SVG Export Plug-In . SVG Version: 6.00 Build 0)  -->
<svg version="1.1" id="Ebene_1" xmlns="http://www.w3.org/2000/svg" xmlns:xlink="http://www.w3.org/1999/xlink" x="0px" y="0px"
	 viewBox="0 0 10 16" style="enable-background:new 0 0 10 16;" xml:space="preserve">
<style type="text/css">
	.st0{fill:#FFFFFF;}
</style>
<path id="Pfad_18" class="st0" d="M9.6,7.1L9.1,6.6L7.3,4.9L2.7,0.4c-0.5-0.5-1.3-0.5-1.8,0L0.4,0.9c-0.5,0.5-0.5,1.2,0,1.7
	c0,0,0,0,0,0L1.8,4L5,7.1L5.9,8L5,8.9l-4.6,4.5c-0.5,0.5-0.5,1.2,0,1.7c0,0,0,0,0,0l0.5,0.5c0.5,0.5,1.3,0.5,1.8,0l4.6-4.5l1.8-1.8
	l0.5-0.5C10.1,8.4,10.1,7.6,9.6,7.1C9.6,7.1,9.6,7.1,9.6,7.1z"/>
</svg>
