<?xml version="1.0" encoding="utf-8"?>
<!-- Generator: Adobe Illustrator 24.2.0, SVG Export Plug-In . SVG Version: 6.00 Build 0)  -->
<svg version="1.1" id="Ebene_1" xmlns="http://www.w3.org/2000/svg" xmlns:xlink="http://www.w3.org/1999/xlink" x="0px" y="0px"
	 viewBox="0 0 20 19" style="enable-background:new 0 0 20 19;" xml:space="preserve">
<style type="text/css">
	.st0{fill:#333333;}
</style>
<g id="Gruppe_125" transform="translate(0.001 0.002)">
	<path id="Pfad_43" class="st0" d="M7.3,14.5v3.8c0,0.3,0.3,0.6,0.6,0.6c0.2,0,0.4-0.1,0.5-0.3l2.3-3L7.3,14.5z"/>
	<path id="Pfad_44" class="st0" d="M19.7,0.1c-0.2-0.1-0.4-0.2-0.7,0L0.3,9.8C0,9.9-0.1,10.3,0.1,10.6c0.1,0.1,0.2,0.2,0.4,0.3
		l5.2,1.8l11.1-9.4L8.1,13.5l8.7,3c0.1,0,0.1,0,0.2,0c0.3,0,0.6-0.2,0.6-0.5L20,0.7C20,0.5,19.9,0.2,19.7,0.1z"/>
</g>
</svg>
