<?xml version="1.0" encoding="utf-8"?>
<!-- Generator: Adobe Illustrator 24.2.0, SVG Export Plug-In . SVG Version: 6.00 Build 0)  -->
<svg version="1.1" id="Ebene_1" xmlns="http://www.w3.org/2000/svg" xmlns:xlink="http://www.w3.org/1999/xlink" x="0px" y="0px"
	 viewBox="0 0 26 26" style="enable-background:new 0 0 26 26;" xml:space="preserve">
<style type="text/css">
	.st0{fill:#FFFFFF;}
</style>
<g id="Gruppe_136" transform="translate(0 0)">
	<g id="Gruppe_135">
		<path id="Pfad_47" class="st0" d="M13,0C5.8,0,0,5.8,0,13s5.8,13,13,13s13-5.8,13-13C26,5.8,20.2,0,13,0z M13,23.8
			C7,23.8,2.2,19,2.2,13C2.2,7,7,2.2,13,2.2C19,2.2,23.8,7,23.8,13c0,0,0,0,0,0C23.8,19,19,23.8,13,23.8z"/>
	</g>
</g>
<g id="Gruppe_138" transform="translate(11.571 5)">
	<g id="Gruppe_137">
		<path id="Pfad_48" class="st0" d="M7,8H2.1V1c0-0.6-0.5-1-1.1-1C0.5,0,0,0.5,0,1v8c0,0.6,0.5,1,1,1h0h0H7c0.6,0,1-0.4,1-1
			C8,8.4,7.5,8,7,8L7,8z"/>
	</g>
</g>
</svg>
