<?xml version="1.0" encoding="utf-8"?>
<!-- Generator: Adobe Illustrator 24.2.0, SVG Export Plug-In . SVG Version: 6.00 Build 0)  -->
<svg version="1.1" id="Ebene_1" xmlns="http://www.w3.org/2000/svg" xmlns:xlink="http://www.w3.org/1999/xlink" x="0px" y="0px"
	 viewBox="0 0 27 27" style="enable-background:new 0 0 27 27;" xml:space="preserve">
<style type="text/css">
	.st0{fill:#9E9E9E;}
	.st1{fill:none;}
</style>
<path id="Pfad_25" class="st0" d="M20,17.1l6.4,6.4c0.8,0.8,0.8,2.1,0,2.9c-0.8,0.8-2.1,0.8-2.9,0L17.1,20c-0.8-0.8-0.8-2.1,0-2.9
	C17.9,16.4,19.2,16.4,20,17.1z"/>
<g id="Ellipse_1">
	<circle class="st1" cx="11" cy="11" r="11"/>
	<path class="st0" d="M11,22C4.9,22,0,17.1,0,11C0,4.9,4.9,0,11,0s11,4.9,11,11C22,17.1,17.1,22,11,22z M11,4c-3.9,0-7,3.1-7,7
		c0,3.9,3.1,7,7,7s7-3.1,7-7C18,7.1,14.9,4,11,4z"/>
</g>
</svg>
