<?xml version="1.0" encoding="utf-8"?>
<!-- Generator: Adobe Illustrator 24.2.0, SVG Export Plug-In . SVG Version: 6.00 Build 0)  -->
<svg version="1.1" id="Ebene_1" xmlns="http://www.w3.org/2000/svg" xmlns:xlink="http://www.w3.org/1999/xlink" x="0px" y="0px"
	 viewBox="0 0 37 37" style="enable-background:new 0 0 37 37;" xml:space="preserve">
<style type="text/css">
	.st0{fill:#9E9E9E;}
</style>
<g id="Gruppe_237" transform="translate(0)">
	<ellipse id="Ellipse_29" class="st0" cx="13.5" cy="32.8" rx="4.3" ry="4.3"/>
	<ellipse id="Ellipse_29_1_" class="st0" cx="25.5" cy="32.8" rx="4.3" ry="4.3"/>
	<path id="Pfad_57" class="st0" d="M29.6,23.8H12l-0.5-2.6H31c0.6,0,1.1-0.3,1.3-0.8l4.6-11.3c0.3-0.7-0.1-1.5-0.8-1.7c0,0,0,0,0,0
		c-0.2-0.1-0.3-0.1-0.5-0.1H9.2L8.1,1.1C8,0.5,7.4,0,6.7,0H1.4C0.6,0,0,0.6,0,1.3s0.6,1.3,1.4,1.3h4.2l4,22.7
		c0.1,0.7,0.7,1.1,1.4,1.1h18.7c0.8,0,1.4-0.6,1.4-1.3C31,24.4,30.4,23.8,29.6,23.8C29.6,23.8,29.6,23.8,29.6,23.8L29.6,23.8z"/>
</g>
</svg>
