<svg xmlns="http://www.w3.org/2000/svg" width="32" height="36.004" viewBox="0 0 32 36.004">
  <g id="user" transform="translate(-1112.999 -284)">
    <path id="Pfad_86" data-name="Pfad 86" d="M15.394,15.5h0a7.749,7.749,0,1,0-5.485-2.271A7.758,7.758,0,0,0,15.4,15.5M11.571,3.924A5.41,5.41,0,1,1,15.4,13.16h0a5.41,5.41,0,0,1-3.824-9.236" transform="translate(1113.61 284)" fill="#0058a1"/>
    <path id="Pfad_87" data-name="Pfad 87" d="M31.918,27.2a21.259,21.259,0,0,0-.3-2.322,17.93,17.93,0,0,0-.592-2.382A12.139,12.139,0,0,0,30,20.212a9.1,9.1,0,0,0-1.631-2.088,7.365,7.365,0,0,0-2.409-1.489,8.146,8.146,0,0,0-3.008-.537l-.12.007a3.859,3.859,0,0,0-1.986.805c-.4.255-.859.549-1.343.853a7.162,7.162,0,0,1-1.617.7,6.1,6.1,0,0,1-3.813-.009,7.087,7.087,0,0,1-1.552-.67c-.509-.319-.972-.611-1.376-.871A3.852,3.852,0,0,0,9.162,16.1L9.041,16.1a8.4,8.4,0,0,0-3.008.537,7.43,7.43,0,0,0-2.419,1.5A8.964,8.964,0,0,0,2,20.2,12.211,12.211,0,0,0,.971,22.512a18.52,18.52,0,0,0-.589,2.365,21.919,21.919,0,0,0-.3,2.338C.031,27.9.005,28.625.006,29.3a7.01,7.01,0,0,0,2.161,5.362A7.522,7.522,0,0,0,7.181,36.6c.1,0,.207,0,.311-.007H24.454a7.609,7.609,0,0,0,5.413-1.96,6.945,6.945,0,0,0,2.126-5.26c.007-.731-.017-1.459-.074-2.168m-3.763,5.589a5.086,5.086,0,0,1-3.649,1.287H7.44a5.027,5.027,0,0,1-3.563-1.255,4.517,4.517,0,0,1-1.36-3.467c0-.675.023-1.336.069-1.963a18.789,18.789,0,0,1,.267-2.069,16.022,16.022,0,0,1,.507-2.041,9.775,9.775,0,0,1,.822-1.834,6.512,6.512,0,0,1,1.152-1.484,4.9,4.9,0,0,1,1.59-.984,5.7,5.7,0,0,1,2.027-.374,1.355,1.355,0,0,1,.665.292l.116.085c.424.272.914.582,1.484.94a9.521,9.521,0,0,0,2.111.922,8.507,8.507,0,0,0,5.307.01,9.651,9.651,0,0,0,2.176-.95c.545-.343,1.034-.653,1.451-.922l.117-.085a1.347,1.347,0,0,1,.665-.292,5.755,5.755,0,0,1,2.029.375,4.828,4.828,0,0,1,1.576.969,6.5,6.5,0,0,1,1.172,1.508,9.633,9.633,0,0,1,.814,1.816,16.007,16.007,0,0,1,.51,2.056,19.305,19.305,0,0,1,.269,2.062V27.4c.051.634.073,1.287.067,2.012a4.452,4.452,0,0,1-1.326,3.379" transform="translate(1113 283.404)" fill="#0058a1"/>
  </g>
</svg>
