<?xml version="1.0" encoding="utf-8"?>
<!-- Generator: Adobe Illustrator 24.2.0, SVG Export Plug-In . SVG Version: 6.00 Build 0)  -->
<svg version="1.1" id="Ebene_1" xmlns="http://www.w3.org/2000/svg" xmlns:xlink="http://www.w3.org/1999/xlink" x="0px" y="0px"
	 viewBox="0 0 33 43" style="enable-background:new 0 0 33 43;" xml:space="preserve">
<style type="text/css">
	.st0{fill:#FFFFFF;}
</style>
<g id="Gruppe_41">
	<g id="Gruppe_40" transform="translate(0 0)">
		<path id="Pfad_27" class="st0" d="M12.3,27.7c1-0.3,1.7-1.2,1.7-2.3c0.1-1.1-0.5-2.1-1.6-2.5l-2-0.8c-7.2-2.9-7.2-2.9-7.7-2.9
			c-0.8,0-1.6,0.4-2,1.1l0,0c-0.9,1.4-1.1,5.1-0.8,7.2c0,0.7,0.2,1.4,0.5,2c0.3,0.7,1.1,1.2,1.9,1.2c0.1,0,0.1,0,0.1,0
			c0.4,0,1-0.2,7-2.1C11.6,27.9,12.2,27.7,12.3,27.7z"/>
		<path id="Pfad_28" class="st0" d="M15.7,29c-1-0.4-2.2-0.2-2.9,0.7c0,0-1.2,1.5-1.4,1.6l0,0c-5,5.8-5,5.9-5.2,6.3
			C6.1,37.9,6,38.2,6,38.5c0.1,0.5,0.2,0.9,0.6,1.2c1.2,1.4,6,3.2,8.3,3.2c0.2,0,0.3,0,0.5,0c0.8-0.1,1.5-0.6,1.7-1.4c0,0,0,0,0,0
			c0.2-0.4,0.2-0.5,0.2-7.3c0,0,0-2.7,0-2.9C17.4,30.3,16.7,29.3,15.7,29z"/>
		<path id="Pfad_29" class="st0" d="M32.2,30.2c-0.4-0.3-0.4-0.3-7-2.4c0,0-2.5-0.8-2.8-0.9h0c-1-0.4-2.1,0-2.8,0.8
			c-0.7,0.8-0.8,2-0.2,3l1.1,1.8c4.1,6.5,4.1,6.6,4.5,6.8c0.4,0.3,0.8,0.4,1.3,0.4c0.3,0,0.6-0.1,0.9-0.2c1.8-0.7,5.5-5.3,5.8-7.2
			C33.1,31.5,32.8,30.7,32.2,30.2z"/>
		<path id="Pfad_30" class="st0" d="M21.4,24.7c0,0,0.1,0,0.1,0c0.1,0,0.2,0,0.3,0c0.3-0.1,1-0.3,2-0.5l0,0c7.5-1.8,7.6-1.8,8-2.1
			c0.6-0.4,1-1.2,0.9-2c0,0,0-0.1,0-0.1c-0.2-2-3.5-6.7-5.2-7.6c-0.7-0.4-1.6-0.3-2.2,0.1c-0.4,0.3-0.4,0.3-4.5,5.8
			c0,0-1.7,2.2-1.7,2.3c-0.7,0.8-0.7,2-0.1,2.9C19.5,24.3,20.4,24.8,21.4,24.7z"/>
		<path id="Pfad_31" class="st0" d="M16.6,1.6c-0.2-0.8-0.9-1.4-1.7-1.6c-2.1-0.5-9.4,1.5-10.8,3C3.5,3.6,3.3,4.4,3.5,5.2
			c0,0,0,0.1,0,0.1c0.2,0.4,6.9,10.8,8.9,14c0.9,1.4,1.8,2.1,2.8,2.1c0.2,0,0.5,0,0.7-0.1c1.3-0.4,1.9-1.6,1.8-3.5
			C17.6,15.2,16.7,2.4,16.6,1.6z"/>
	</g>
</g>
</svg>
